Coordinates
version=1
nRows=15
nColumns=41
inDegrees=yes

Units are S.I. units (second, meters, Newtons, ...)
If the header above contains a line with 'inDegrees', this indicates whether rotational values are in degrees (yes) or radians (no).

endheader
time	pelvis_tilt	pelvis_list	pelvis_rotation	pelvis_tx	pelvis_ty	pelvis_tz	hip_flexion_r	hip_adduction_r	hip_rotation_r	knee_angle_r	ankle_angle_r	subtalar_angle_r	mtp_angle_r	hip_flexion_l	hip_adduction_l	hip_rotation_l	knee_angle_l	ankle_angle_l	subtalar_angle_l	mtp_angle_l	L5_S1_Flex_Ext	L5_S1_Lat_Bending	L5_S1_axial_rotation	neck_flexion	neck_bending	neck_rotation	arm_flex_r	arm_add_r	arm_rot_r	elbow_flex_r	pro_sup_r	wrist_flex_r	wrist_dev_r	arm_flex_l	arm_add_l	arm_rot_l	elbow_flex_l	pro_sup_l	wrist_flex_l	wrist_dev_l
      4.40000000	     -1.97078187	      5.94950867	    -84.93604963	      0.14092220	      1.04299141	     -0.01708236	      8.11570000	     -0.22029228	     -1.65936527	      2.21361203	     -3.86448994	    -15.20997466	      0.00000000	      6.89720722	     -2.20625628	     -8.97722967	      0.00000000	      2.06619818	     -4.84068763	      0.00000000	      0.00749680	     -0.42843841	      1.00598854	      0.00000000	      0.00000000	      0.00000002	     17.65101090	    -15.24216059	    -19.15926817	     33.54597112	     50.70407634	      0.00000000	      0.00000000	     15.69749282	    -16.07708445	     -6.29781045	     28.72991181	     36.59177381	      0.00000000	      0.00000000
      4.42000000	     -1.96220230	      6.13638300	    -84.92932563	      0.14053374	      1.04273576	     -0.01631608	      8.25179273	     -0.21609302	     -1.67902081	      2.25848556	     -3.73691820	    -15.22735809	      0.00000000	      7.05541654	     -2.18567253	     -8.84954387	      0.00000000	      1.95140149	     -4.90894495	      0.00000000	      0.00763336	     -0.41180615	      1.31125931	      0.00000000	      0.00000000	      0.00000002	     16.72736084	    -14.85824760	    -20.02172043	     31.07919438	     52.04165645	      0.00000000	      0.00000000	     14.64220746	    -15.51486706	     -7.90480698	     25.69203367	     36.69330013	      0.00000000	      0.00000000
      4.44000000	     -2.01713724	      6.32746595	    -84.79793816	      0.14062966	      1.04244597	     -0.01508544	      8.31513641	     -0.15974192	     -1.92102601	      2.19098159	     -3.71826410	    -15.03258558	      0.00000000	      7.23320213	     -2.22005747	     -8.53349087	      0.00000000	      1.77444809	     -4.83134396	      0.00000000	      0.00329303	     -0.31314711	      1.55760191	      0.00000000	      0.00000000	      0.00000002	     15.34414342	    -14.23616924	    -23.44751472	     30.02127530	     62.19258833	      0.00000000	      0.00000000	     13.38803320	    -14.05320462	    -15.81370719	     24.02492224	     40.72175619	      0.00000000	      0.00000000
      4.46000000	     -2.00089693	      6.66963345	    -84.79808132	      0.14064354	      1.04179573	     -0.01361696	      8.60998898	     -0.16635319	     -1.92448998	      2.23069470	     -3.62337075	    -15.10634732	      0.00000000	      7.56262489	     -2.17917020	     -8.50267337	      0.00000000	      1.76253577	     -4.83757824	      0.00000000	      0.00385744	     -0.31838731	      1.72381158	      0.00000000	      0.00000000	      0.00000002	     14.07784872	    -13.97024634	    -23.52450120	     29.38769194	     62.20986445	      0.00000000	      0.00000000	     11.80660802	    -13.90882640	    -15.86632506	     23.32320545	     40.73004771	      0.00000000	      0.00000000
      4.48000000	     -1.91103975	      6.75443684	    -84.85621754	      0.14064203	      1.04126200	     -0.01228287	      8.71644876	     -0.22754166	     -1.56350293	      2.45635006	     -3.15151311	    -15.18805266	      0.00000000	      7.61693833	     -2.09865453	     -8.56415709	      0.00000000	      1.69064933	     -4.93110288	      0.00000000	      0.00948374	     -0.35741566	      1.35144745	      0.00000000	      0.00000000	      0.00000002	     14.12308499	    -13.49665454	    -24.79272526	     26.45246459	     63.06803892	      0.00000000	      0.00000000	     10.97073478	    -13.91489580	    -17.06383583	     20.61152968	     41.49877176	      0.00000000	      0.00000000
      4.50000000	     -1.90936084	      6.95555754	    -84.80621223	      0.14081272	      1.04032261	     -0.01078356	      8.82373723	     -0.21854798	     -1.61742738	      2.40129685	     -3.09192478	    -15.24920972	      0.00000000	      7.78835415	     -2.09164978	     -8.55126272	      0.00000000	      1.68017329	     -4.92969153	      0.00000000	      0.00944958	     -0.34376630	      1.37291170	      0.00000000	      0.00000000	      0.00000002	     12.99160037	    -13.32603135	    -24.87832751	     25.98258216	     63.10353287	      0.00000000	      0.00000000	      9.83530812	    -13.66818073	    -17.15830662	     20.14032834	     41.52090737	      0.00000000	      0.00000000
      4.52000000	     -1.89114324	      7.12410954	    -84.67929953	      0.14095668	      1.03945656	     -0.00942505	      8.90092472	     -0.24806108	     -1.59488057	      2.34662823	     -3.02689502	    -15.28134597	      0.00000000	      7.93109350	     -2.07253399	     -8.58299720	      0.00000000	      1.69688189	     -4.95837663	      0.00000000	      0.01533988	     -0.27507924	      1.34978321	      0.00000000	      0.00000000	      0.00000002	     11.97112560	    -13.13199778	    -24.95820960	     25.54172774	     63.12483993	      0.00000000	      0.00000000	      8.92242488	    -13.49774617	    -17.24986020	     19.74744168	     41.53431645	      0.00000000	      0.00000000
      4.54000000	     -1.85896425	      7.02124284	    -84.54656326	      0.14132706	      1.03926620	     -0.00780167	      8.56168645	     -0.28251469	     -1.81250407	      2.04772266	     -2.55231948	    -14.90650650	      0.00000000	      7.72582378	     -2.06169481	     -8.55022211	      0.00000000	      1.97520439	     -5.04998233	      0.00000000	      0.00568015	     -0.29200270	      0.97151856	      0.00000000	      0.00000000	      0.00000002	     11.57132233	    -12.08785383	    -32.39371742	     24.71408178	     72.98996049	      0.00000000	      0.00000000	      8.47475253	    -11.82509162	    -31.08508966	     19.65847842	     51.45430457	      0.00000000	      0.00000000
      4.56000000	     -1.88585042	      7.19242879	    -84.44927755	      0.14119944	      1.03898165	     -0.00694209	      8.63802307	     -0.26334865	     -1.75004252	      1.88512971	     -2.51126321	    -14.91615671	      0.00000000	      7.82950752	     -2.11745377	     -8.60636639	      0.00000000	      1.94448797	     -5.07609931	      0.00000000	      0.01002479	     -0.33680729	      0.86339423	      0.00000000	      0.00000000	      0.00000002	     10.74231817	    -11.85877597	    -32.39643049	     24.29678823	     73.04198339	      0.00000000	      0.00000000	      7.83761928	    -11.79948337	    -31.07105135	     19.36499519	     51.53976417	      0.00000000	      0.00000000
      4.58000000	     -1.84300048	      7.19225541	    -84.33552315	      0.14112693	      1.03911539	     -0.00670247	      8.43445863	     -0.31669976	     -1.81965648	      1.49075469	     -2.64995098	    -14.84719094	      0.00000000	      7.72539297	     -2.10101792	     -8.54372951	      0.00000000	      1.90633332	     -5.39627353	      0.00000000	      0.01265724	     -0.39382041	      0.28166282	      0.00000000	      0.00000000	      0.00000002	     10.63101853	    -11.94154639	    -31.24271761	     22.29639310	     81.35210173	      0.00000000	      0.00000000	      6.94303192	    -12.25675998	    -29.95536720	     18.73987793	     64.38044297	      0.00000000	      0.00000000
      4.60000000	     -1.80996205	      7.32043768	    -84.23677025	      0.14102844	      1.03922263	     -0.00701559	      8.51791633	     -0.39035817	     -1.78458467	      1.35474159	     -2.57354049	    -14.86654071	      0.00000000	      7.76751492	     -2.07117721	     -8.61553520	      0.00000000	      1.89486957	     -5.43475891	      0.00000000	      0.01441677	     -0.42021635	      0.17858315	      0.00000000	      0.00000000	      0.00000002	     10.01217342	    -11.76230263	    -31.34698854	     22.03028765	     81.35025281	      0.00000000	      0.00000000	      6.54323432	    -12.19652325	    -30.06029550	     18.53629306	     64.39267856	      0.00000000	      0.00000000
      4.62000000	     -1.72859559	      7.28205329	    -84.03780139	      0.14088536	      1.03970912	     -0.00746778	      8.34918188	     -0.50609346	     -2.08697128	      1.06147086	     -2.40900493	    -14.49369834	      0.00000000	      7.65583852	     -1.99336450	     -8.40096417	      0.00000000	      1.69042262	     -5.83035543	      0.00000000	      0.01401088	     -0.52683955	     -0.39465477	      0.00000000	      0.00000000	      0.00000002	     10.32528948	    -11.11656596	    -34.55559755	     20.52501792	     81.51112158	      0.00000000	      0.00000000	      6.57972897	    -12.16340716	    -33.21287129	     17.55140563	     65.36828946	      0.00000000	      0.00000000
      4.64000000	     -1.70716295	      7.37659819	    -83.99342345	      0.14067505	      1.04002188	     -0.00767619	      8.44434545	     -0.55432581	     -2.07621584	      0.96992299	     -2.39204509	    -14.49192196	      0.00000000	      7.68679452	     -1.97824553	     -8.47376820	      0.00000000	      1.67041143	     -5.86273486	      0.00000000	      0.01353316	     -0.55129522	     -0.42227323	      0.00000000	      0.00000000	      0.00000002	      9.86865557	    -10.93046961	    -34.58465033	     20.36315111	     81.53373108	      0.00000000	      0.00000000	      6.36461182	    -12.14960417	    -33.26559169	     17.51686862	     65.40766582	      0.00000000	      0.00000000
      4.66000000	     -1.68226823	      7.45017550	    -83.94123171	      0.14059805	      1.04035815	     -0.00756105	      8.51034746	     -0.60614987	     -2.11169361	      0.89399765	     -2.39340048	    -14.48769485	      0.00000000	      7.70463865	     -1.95225033	     -8.54248113	      0.00000000	      1.62020138	     -5.89533851	      0.00000000	      0.01519411	     -0.58773862	     -0.44074487	      0.00000000	      0.00000000	      0.00000002	      9.49105384	    -10.73035241	    -34.61766756	     20.19529376	     81.55475231	      0.00000000	      0.00000000	      6.22452191	    -12.18136533	    -33.31994142	     17.51227919	     65.44891258	      0.00000000	      0.00000000
      4.68000000	     -1.65710624	      7.49813457	    -83.89409491	      0.14052267	      1.04081068	     -0.00718835	      8.54773219	     -0.65383749	     -2.19970118	      0.86203637	     -2.40656759	    -14.48895863	      0.00000000	      7.70130321	     -1.92358835	     -8.60128433	      0.00000000	      1.52854734	     -5.92495602	      0.00000000	      0.01561495	     -0.64012062	     -0.44133676	      0.00000000	      0.00000000	      0.00000002	      9.17537406	    -10.53901215	    -34.66210251	     20.01761714	     81.57755631	      0.00000000	      0.00000000	      6.11258633	    -12.21401694	    -33.38087386	     17.52699292	     65.49878550	      0.00000000	      0.00000000
